<svg width="99" height="18" viewBox="0 0 99 18" fill="none" xmlns="http://www.w3.org/2000/svg">
<path d="M91.5109 15.406C91.3753 15.8992 91.252 16.2752 91.141 16.5341C91.0424 16.7807 90.8883 17.0397 90.6787 17.3109C90.5184 17.2862 90.4074 17.3047 90.3458 17.3664C90.2841 17.428 90.2163 17.4835 90.1423 17.5328C90.0314 17.5575 89.9512 17.5575 89.9019 17.5328C89.8526 17.5082 89.8094 17.4774 89.7724 17.4404C89.7355 17.4157 89.6861 17.3849 89.6245 17.3479C89.5752 17.3232 89.495 17.3109 89.3841 17.3109C89.3594 17.2123 89.3286 17.1198 89.2916 17.0335C89.2669 16.9472 89.1868 16.9164 89.0512 16.941C89.0758 16.8424 89.082 16.7622 89.0697 16.7006C89.0573 16.6266 89.0388 16.565 89.0142 16.5156C89.0018 16.454 88.9895 16.3985 88.9772 16.3492C88.9649 16.2875 88.971 16.2136 88.9957 16.1273C88.934 16.1273 88.8847 16.0841 88.8477 15.9978C88.8107 15.9115 88.7676 15.8252 88.7183 15.7389C88.7553 15.5169 88.7922 15.3073 88.8292 15.1101C88.8662 14.9128 88.9094 14.7278 88.9587 14.5552C89.0203 14.3826 89.0697 14.21 89.1066 14.0374C89.1436 13.8648 89.1251 13.686 89.0512 13.501C89.1005 13.538 89.1375 13.5319 89.1621 13.4825C89.1868 13.4209 89.2053 13.3469 89.2176 13.2606C89.2299 13.162 89.2361 13.0695 89.2361 12.9832C89.2361 12.8845 89.2299 12.8044 89.2176 12.7428C89.3409 12.4222 89.4395 12.0954 89.5135 11.7625C89.5998 11.4173 89.6738 11.0782 89.7355 10.7453C89.8094 10.4124 89.8834 10.0857 89.9574 9.76514C90.0314 9.44457 90.13 9.14865 90.2533 8.8774C90.3889 8.85274 90.5369 8.87124 90.6972 8.93288C90.8698 8.9822 90.9746 9.05002 91.0116 9.13632C91.3322 8.88973 91.6157 8.59382 91.8623 8.24859C92.1089 7.89103 92.3617 7.54579 92.6206 7.21289C92.8795 6.87999 93.1631 6.58408 93.4714 6.32516C93.7919 6.06623 94.1926 5.91211 94.6735 5.86279C94.9201 6.04774 95.1913 6.23885 95.4873 6.43612C95.7955 6.62107 96.0483 6.86766 96.2455 7.1759C96.3442 7.22522 96.4243 7.28071 96.486 7.34236C96.5599 7.39167 96.6462 7.44716 96.7449 7.50881V7.73074C96.8928 7.86637 97.01 8.02665 97.0963 8.2116C97.1949 8.38421 97.2812 8.57532 97.3552 8.78493C97.4292 8.9822 97.5032 9.18564 97.5771 9.39525C97.6511 9.59252 97.7374 9.78363 97.8361 9.96858C97.8114 10.0302 97.7991 10.0857 97.7991 10.135C97.7991 10.172 97.8052 10.2152 97.8176 10.2645C97.8422 10.3138 97.8607 10.3631 97.8731 10.4124C97.8854 10.4618 97.8854 10.5296 97.8731 10.6159C97.8361 11.1584 97.6573 11.5961 97.3367 11.929C97.0285 12.2619 96.6524 12.5393 96.2085 12.7613C95.7647 12.9709 95.29 13.1496 94.7845 13.2976C94.2789 13.4455 93.8228 13.6058 93.4159 13.7785C93.4159 13.8278 93.4344 13.8524 93.4714 13.8524C93.5207 13.8524 93.5392 13.8833 93.5268 13.9449C93.8228 14.1298 94.057 14.2778 94.2296 14.3888C94.4022 14.4997 94.5625 14.5922 94.7105 14.6662C94.8708 14.7402 95.0372 14.808 95.2098 14.8696C95.3948 14.9189 95.6475 14.9806 95.9681 15.0546C96.2887 15.1286 96.5353 15.1902 96.7079 15.2395C96.8928 15.2765 97.0593 15.3135 97.2072 15.3505C97.3552 15.3751 97.5032 15.3998 97.6511 15.4245C97.8114 15.4368 98.0333 15.4553 98.3169 15.4799C98.4279 15.5909 98.5204 15.7265 98.5943 15.8868C98.6806 16.0348 98.7361 16.1889 98.7608 16.3492C98.7854 16.4971 98.7916 16.6451 98.7793 16.7931C98.767 16.9287 98.7238 17.0397 98.6498 17.126C98.6622 17.1629 98.6868 17.1814 98.7238 17.1814C98.7731 17.1691 98.8224 17.1691 98.8718 17.1814C98.7978 17.2308 98.7361 17.2924 98.6868 17.3664C98.6375 17.4404 98.5882 17.5143 98.5389 17.5883C98.4895 17.6623 98.4341 17.724 98.3724 17.7733C98.3108 17.8349 98.2244 17.8719 98.1135 17.8842C97.7313 18.0322 97.2504 18.0384 96.6709 17.9027C96.0914 17.7794 95.3578 17.5452 94.4701 17.1999C94.0262 17.0273 93.6625 16.8794 93.3789 16.7561C93.1076 16.6204 92.8672 16.491 92.6576 16.3677C92.4603 16.2321 92.2754 16.0903 92.1028 15.9423C91.9425 15.7944 91.7452 15.6156 91.5109 15.406ZM94.1557 9.06235C94.02 9.25962 93.8659 9.4384 93.6933 9.59869C93.533 9.75897 93.3727 9.92542 93.2124 10.098C93.0645 10.2583 92.9288 10.4433 92.8056 10.6529C92.6823 10.8502 92.5959 11.0844 92.5466 11.3557C92.9782 11.3063 93.4282 11.1892 93.8967 11.0043C94.3653 10.807 94.8091 10.6221 95.2283 10.4494C95.179 10.0672 95.0434 9.75897 94.8215 9.52471C94.6119 9.29045 94.3899 9.13632 94.1557 9.06235Z" fill="white"/>
<path d="M87.3127 15.7758C87.2387 15.9854 87.1277 16.2012 86.9798 16.4231C86.8442 16.6327 86.6777 16.8238 86.4804 16.9964C86.2955 17.1567 86.0859 17.2923 85.8516 17.4033C85.6173 17.5143 85.3708 17.5759 85.1118 17.5883C84.9515 17.5513 84.8406 17.5081 84.7789 17.4588C84.7296 17.4218 84.6741 17.3848 84.6125 17.3478C84.5755 17.3232 84.5385 17.3047 84.5015 17.2923C84.4769 17.2677 84.4522 17.2492 84.4275 17.2369L84.2056 17.1444L84.2796 16.904C84.3042 16.8053 84.2981 16.7313 84.2611 16.682C84.2241 16.6204 84.1501 16.5402 84.0391 16.4416C84.0022 16.4046 83.9652 16.3676 83.9282 16.3306C83.8912 16.2936 83.8604 16.2566 83.8357 16.2197L83.5213 15.8683L84.0207 15.7388C84.3289 15.6525 84.5323 15.5415 84.631 15.4059C84.7419 15.2703 84.7851 15.0422 84.7604 14.7216C84.5138 14.6723 84.3042 14.6661 84.1316 14.7031C83.9713 14.7401 83.8049 14.7833 83.6323 14.8326C83.4103 14.8942 83.1822 14.9497 82.948 14.999C82.726 15.036 82.4794 15.0545 82.2082 15.0545C82.1096 15.0545 82.0171 15.0545 81.9308 15.0545C81.8445 15.0422 81.752 15.0298 81.6534 15.0175L81.4684 14.9805C81.4438 14.8449 81.4191 14.7709 81.3944 14.7586C81.3698 14.7339 81.3451 14.7093 81.3205 14.6846C81.2588 14.623 81.191 14.5428 81.117 14.4442C81.0554 14.3332 81.043 14.1976 81.08 14.0373C81.0184 13.9263 80.9814 13.8154 80.9691 13.7044C80.8951 13.8524 80.8396 14.0065 80.8026 14.1668L80.7286 14.3517L80.5437 14.3887C80.519 14.401 80.5005 14.4319 80.4882 14.4812C80.4759 14.5182 80.4697 14.549 80.4697 14.5736L80.3772 14.8881C80.3526 14.9127 80.3279 14.9374 80.3033 14.962C80.2786 14.9744 80.2539 14.9929 80.2293 15.0175C80.2046 15.1285 80.1738 15.2395 80.1368 15.3504C80.0998 15.4614 80.0628 15.5662 80.0258 15.6648C79.9642 15.8251 79.9087 15.9854 79.8594 16.1457C79.8224 16.2936 79.8101 16.4416 79.8224 16.5896L79.7484 16.793C79.6868 16.867 79.619 16.9286 79.545 16.9779C79.471 17.0149 79.397 17.0519 79.323 17.0889C79.2984 17.1136 79.2614 17.1382 79.2121 17.1629C79.1751 17.1752 79.1443 17.1875 79.1196 17.1999L79.0641 17.4033L78.8422 17.4403C78.7066 17.465 78.6079 17.4835 78.5463 17.4958C78.497 17.5081 78.4353 17.5143 78.3613 17.5143L78.1764 17.4958C78.0408 17.3848 77.936 17.2985 77.862 17.2369C77.788 17.1629 77.7017 17.0951 77.6031 17.0334C77.4921 16.8855 77.4304 16.7745 77.4181 16.7005C77.4058 16.6265 77.3934 16.5587 77.3811 16.4971C77.3565 16.4231 77.3441 16.3615 77.3441 16.3121C77.3318 16.2628 77.3133 16.2258 77.2886 16.2012L77.0482 15.9792L77.2517 15.8128L77.2702 15.4984C77.5167 14.8696 77.7757 14.2654 78.0469 13.6859C78.3305 13.1064 78.6203 12.5146 78.9162 11.9104C79.0148 11.7132 79.1073 11.5159 79.1936 11.3186C79.2922 11.1213 79.3909 10.9241 79.4895 10.7268C79.4772 10.6898 79.471 10.6466 79.471 10.5973C79.471 10.548 79.4833 10.4925 79.508 10.4309C79.6436 10.2213 79.7546 10.0363 79.8409 9.87604C79.9272 9.70342 80.0135 9.53081 80.0998 9.35819C80.1985 9.14859 80.2971 8.94515 80.3957 8.74787C80.5067 8.5506 80.6423 8.34716 80.8026 8.13755L81.0985 8.00809C81.1355 7.99576 81.1787 7.98343 81.228 7.9711C81.2773 7.94644 81.3328 7.93411 81.3944 7.93411L81.6718 7.9711C82.0171 7.81082 82.3192 7.58888 82.5781 7.3053C82.837 7.00939 83.1021 6.65799 83.3733 6.25111L83.5583 5.99219L83.7987 6.14014C83.8604 6.17713 83.9467 6.21412 84.0576 6.25111C84.1686 6.27577 84.2857 6.30659 84.409 6.34358C84.631 6.3929 84.8406 6.44839 85.0379 6.51003C85.2351 6.57168 85.3954 6.66416 85.5187 6.78745C85.5927 6.98473 85.6358 7.13268 85.6482 7.23132C85.6605 7.32996 85.679 7.4286 85.7037 7.52723C85.7406 7.73684 85.7715 7.94644 85.7961 8.15605C85.8331 8.36565 85.8578 8.59992 85.8701 8.85884C85.9318 9.06844 85.9811 9.27805 86.0181 9.48765C86.0674 9.68493 86.1105 9.88837 86.1475 10.098C86.2092 10.3939 86.2708 10.6836 86.3325 10.9672C86.3941 11.2385 86.4743 11.4974 86.5729 11.744C86.6715 11.744 86.7332 11.7502 86.7578 11.7625C86.8195 11.7378 86.8811 11.7193 86.9428 11.707C87.0168 11.6947 87.0969 11.6823 87.1832 11.67L87.3867 11.6515L87.4606 11.8365C87.473 11.8981 87.5346 11.9598 87.6456 12.0214C87.8059 12.0337 87.923 12.0707 87.997 12.1324C88.071 12.1817 88.1388 12.2372 88.2004 12.2988C88.2497 12.3481 88.2991 12.3851 88.3484 12.4098L88.6258 12.5208L88.4778 12.7982C88.3545 13.0201 88.1758 13.2359 87.9415 13.4455C87.7196 13.6428 87.4668 13.8092 87.1832 13.9448C87.1955 14.0188 87.2017 14.0928 87.2017 14.1668C87.214 14.2284 87.2325 14.2962 87.2572 14.3702C87.2942 14.5798 87.325 14.7956 87.3497 15.0175C87.3743 15.2395 87.3743 15.4675 87.3497 15.7018L87.3127 15.7758ZM81.9678 12.5762C82.3377 12.5516 82.6706 12.5269 82.9665 12.5023C83.2747 12.4653 83.6138 12.4098 83.9837 12.3358C83.8974 11.9659 83.8049 11.5837 83.7062 11.1891C83.6076 10.7823 83.5028 10.3816 83.3918 9.98701L83.2809 10.172C83.0343 10.4309 82.7939 10.7206 82.5596 11.0412C82.3377 11.3618 82.1465 11.6638 81.9863 11.9474C81.9123 12.0584 81.8383 12.1694 81.7643 12.2803C81.6903 12.3913 81.6225 12.5023 81.5609 12.6132C81.6349 12.6009 81.7027 12.5947 81.7643 12.5947C81.8383 12.5947 81.9061 12.5886 81.9678 12.5762Z" fill="white"/>
<path d="M76.8263 14.3148C76.9002 14.3518 76.9434 14.4134 76.9557 14.4997C76.968 14.586 76.968 14.6539 76.9557 14.7032C76.7338 14.9868 76.5797 15.184 76.4934 15.295C76.407 15.406 76.3454 15.4923 76.3084 15.5539C76.2714 15.6032 76.2283 15.6464 76.1789 15.6834C76.142 15.7204 76.0495 15.8005 75.9015 15.9238C75.3467 16.2567 74.7734 16.5526 74.1815 16.8116C73.602 17.0705 72.9917 17.2493 72.3506 17.3479C72.2519 17.4835 72.0608 17.576 71.7772 17.6253C71.506 17.687 71.2532 17.7424 71.019 17.7918C70.9697 17.7671 70.9388 17.7301 70.9265 17.6808C70.9265 17.6438 70.9018 17.613 70.8525 17.5883C70.8402 17.7116 70.7847 17.7733 70.6861 17.7733C70.5874 17.7856 70.4641 17.7609 70.3162 17.6993C70.1806 17.65 70.0326 17.576 69.8723 17.4774C69.7244 17.391 69.5949 17.3109 69.4839 17.2369C69.4223 17.3356 69.3545 17.4342 69.2805 17.5328C69.2188 17.6315 69.1387 17.6993 69.0401 17.7363C68.9044 17.7116 68.7996 17.6931 68.7256 17.6808C68.664 17.6685 68.6024 17.6931 68.5407 17.7548C68.4667 17.7178 68.4051 17.6746 68.3558 17.6253C68.3188 17.576 68.2756 17.5267 68.2263 17.4774C68.1893 17.4404 68.14 17.4034 68.0783 17.3664C68.029 17.3294 67.955 17.2986 67.8564 17.2739C67.8811 17.2246 67.8687 17.1506 67.8194 17.052C67.7701 16.941 67.6961 16.8732 67.5975 16.8485C67.6468 16.7622 67.6221 16.6574 67.5235 16.5341C67.4372 16.3985 67.3694 16.2506 67.3201 16.0903C67.3447 15.9546 67.3632 15.8067 67.3755 15.6464C67.3879 15.4861 67.4619 15.3936 67.5975 15.369C67.5852 15.2827 67.5667 15.2087 67.542 15.147C67.5173 15.0854 67.4927 15.0238 67.468 14.9621C67.5543 14.8881 67.616 14.8018 67.653 14.7032C67.69 14.5922 67.7208 14.4812 67.7454 14.3703C67.7701 14.2593 67.8009 14.1483 67.8379 14.0374C67.8749 13.9264 67.9427 13.8339 68.0414 13.76C68.1523 13.3901 68.2386 13.1188 68.3003 12.9462C68.3619 12.7613 68.4051 12.5825 68.4297 12.4099C68.4667 12.2372 68.5037 12.0523 68.5407 11.855C68.59 11.6577 68.6702 11.4112 68.7811 11.1152C68.7688 10.9303 68.7873 10.77 68.8366 10.6344C68.8859 10.4864 68.9353 10.3446 68.9846 10.209C69.0462 10.0611 69.0955 9.9131 69.1325 9.76514C69.1695 9.60485 69.1634 9.41991 69.114 9.2103C68.9414 9.22263 68.8181 9.28428 68.7441 9.39525C68.6702 9.49389 68.6208 9.62951 68.5962 9.80213C68.4975 9.90077 68.3743 9.95009 68.2263 9.95009C68.0907 9.93776 67.9674 9.95009 67.8564 9.98707C67.4249 9.81446 67.0673 9.56786 66.7837 9.24729C66.5001 8.92672 66.272 8.55067 66.0994 8.11913C66.2104 7.83554 66.3768 7.60128 66.5988 7.41633C66.8207 7.21906 67.0735 7.05877 67.3571 6.93548C67.6406 6.79985 67.9427 6.69505 68.2633 6.62107C68.5839 6.53476 68.8921 6.45462 69.188 6.38064C69.6689 6.29433 70.1497 6.1957 70.6306 6.08473C71.1114 5.97376 71.6293 5.93677 72.1841 5.97376C72.2581 5.93677 72.3444 5.91828 72.443 5.91828C72.554 5.90595 72.665 5.89978 72.776 5.89978C72.8869 5.89978 72.9917 5.89978 73.0904 5.89978C73.2013 5.88745 73.2938 5.86279 73.3678 5.82581C73.4294 5.89978 73.5157 5.9491 73.6267 5.97376C73.75 5.98609 73.8795 6.04158 74.0151 6.14021C74.163 6.02925 74.2863 6.00459 74.385 6.06623C74.4959 6.12788 74.5946 6.1957 74.6809 6.26967C74.7672 6.34365 74.8473 6.41147 74.9213 6.47311C75.0076 6.53476 75.0939 6.56559 75.1802 6.56559C75.2665 6.67655 75.3713 6.78136 75.4946 6.87999C75.6303 6.97863 75.7536 7.08343 75.8645 7.1944C75.9878 7.29304 76.0865 7.40401 76.1604 7.5273C76.2468 7.6506 76.2899 7.79239 76.2899 7.95268C76.2776 8.01432 76.2961 8.05131 76.3454 8.06364C76.3947 8.07597 76.4317 8.10063 76.4564 8.13762C76.4687 8.51984 76.407 8.85274 76.2714 9.13633C76.1481 9.40758 75.9878 9.66034 75.7906 9.8946C75.6056 10.1289 75.396 10.3508 75.1617 10.5604C74.9398 10.77 74.7364 10.9919 74.5514 11.2262C74.6747 11.3865 74.8165 11.5283 74.9768 11.6516C75.1371 11.7749 75.2974 11.8982 75.4577 12.0215C75.6303 12.1448 75.7906 12.2742 75.9385 12.4099C76.0865 12.5455 76.2098 12.7058 76.3084 12.8907C76.3331 12.9154 76.3639 12.94 76.4009 12.9647C76.4379 12.977 76.4749 12.9955 76.5118 13.0202C76.5488 13.1435 76.5982 13.2729 76.6598 13.4086C76.7214 13.5319 76.7708 13.6552 76.8078 13.7785C76.8571 13.8894 76.8879 13.9942 76.9002 14.0929C76.9126 14.1792 76.8879 14.2531 76.8263 14.3148ZM73.5712 8.13762C72.9424 8.11296 72.3136 8.16845 71.6848 8.30407C71.0683 8.4397 70.5504 8.63081 70.1312 8.8774C70.3408 9.05002 70.5504 9.20414 70.76 9.33977C70.982 9.47539 71.1546 9.66034 71.2779 9.8946C71.7588 9.69733 72.1841 9.45073 72.554 9.15482C72.9239 8.84658 73.263 8.50751 73.5712 8.13762ZM73.8116 14.0374C73.8486 13.9141 73.9164 13.8154 74.0151 13.7415C74.1137 13.6675 74.2124 13.5997 74.311 13.538C74.4096 13.464 74.4959 13.3901 74.5699 13.3161C74.6439 13.2298 74.6747 13.1126 74.6624 12.9647C74.2678 12.7551 73.9041 12.6318 73.5712 12.5948C73.2506 12.5455 72.9424 12.5455 72.6465 12.5948C72.3629 12.6318 72.0855 12.6934 71.8142 12.7797C71.5553 12.8661 71.2902 12.9277 71.019 12.9647C70.8833 13.3223 70.7416 13.7106 70.5936 14.1298C70.4456 14.5491 70.3038 14.9559 70.1682 15.3505C70.5381 15.3012 70.8772 15.2272 71.1854 15.1286C71.4937 15.0176 71.7896 14.9005 72.0732 14.7772C72.3691 14.6539 72.6527 14.5306 72.9239 14.4073C73.2075 14.2716 73.5034 14.1483 73.8116 14.0374Z" fill="white"/>
<path d="M58.5352 11.781C58.5229 11.929 58.5352 12.0708 58.5722 12.2064C58.6092 12.342 58.6523 12.4776 58.7017 12.6133C58.7633 12.7366 58.8188 12.866 58.8681 13.0017C58.9174 13.1373 58.9544 13.2729 58.9791 13.4085C59.0037 13.5811 59.0037 13.7723 58.9791 13.9819C58.9544 14.1791 58.9113 14.3764 58.8496 14.5737C58.788 14.7586 58.7078 14.9312 58.6092 15.0915C58.5105 15.2395 58.3934 15.3505 58.2578 15.4244C58.0852 15.6464 57.8756 15.819 57.629 15.9423C57.3824 16.0656 57.1543 16.2135 56.9447 16.3861C56.809 16.4725 56.6549 16.5341 56.4823 16.5711C56.322 16.6081 56.1556 16.6451 55.983 16.6821C55.8473 16.756 55.687 16.8362 55.5021 16.9225C55.3172 16.9965 55.126 17.0704 54.9288 17.1444C54.7315 17.2061 54.5342 17.2554 54.3369 17.2924C54.1397 17.317 53.9671 17.3232 53.8191 17.3109C53.4492 17.4465 53.0855 17.5328 52.7279 17.5698C52.3827 17.6191 51.9758 17.5945 51.5073 17.4958C51.0634 17.5575 50.6504 17.539 50.2682 17.4403C49.8983 17.3417 49.5654 17.1876 49.2694 16.978C48.9859 16.756 48.7331 16.4971 48.5112 16.2012C48.3016 15.893 48.129 15.5724 47.9933 15.2395C47.8947 14.5367 47.9193 13.9017 48.0673 13.3346C48.2153 12.7551 48.4249 12.2249 48.6961 11.744C48.9797 11.2508 49.3003 10.8008 49.6578 10.3939C50.0154 9.97471 50.3606 9.56783 50.6935 9.17328C50.7675 9.19794 50.823 9.19794 50.86 9.17328C50.9093 9.1363 50.9524 9.09314 50.9894 9.04382C51.0264 8.98217 51.0634 8.92669 51.1004 8.87737C51.1497 8.82805 51.2052 8.79723 51.2669 8.7849C51.3532 8.59995 51.4765 8.46433 51.6367 8.37802C51.8094 8.27938 51.945 8.14376 52.0436 7.97114C52.1546 7.94648 52.2471 7.90949 52.321 7.86017C52.395 7.81085 52.4628 7.75537 52.5245 7.69372C52.5985 7.63207 52.6724 7.57659 52.7464 7.52727C52.8204 7.46562 52.9067 7.42247 53.0053 7.39781V7.19437C53.2273 7.09573 53.3876 6.98477 53.4862 6.86147C53.5972 6.72584 53.7266 6.56556 53.8746 6.38061C53.9856 6.36828 54.0719 6.36212 54.1335 6.36212C54.2075 6.36212 54.3123 6.34979 54.4479 6.32513C54.5466 6.15251 54.6329 6.02305 54.7068 5.93674C54.7931 5.85043 54.9164 5.75796 55.0767 5.65932C55.2247 5.7333 55.385 5.78262 55.5576 5.80728C55.7425 5.83194 55.9028 5.91208 56.0384 6.04771C56.0508 6.17101 56.0878 6.26964 56.1494 6.34362C56.2111 6.40527 56.2789 6.46692 56.3529 6.52857C56.4268 6.57789 56.4946 6.63337 56.5563 6.69502C56.6303 6.75667 56.6796 6.84297 56.7042 6.95394C56.7536 6.96627 56.7844 6.96011 56.7967 6.93545C56.8214 6.91079 56.8584 6.90462 56.9077 6.91695C56.9447 7.08957 56.9878 7.2067 57.0371 7.26835C57.0865 7.31767 57.1358 7.42247 57.1851 7.58276C57.1235 7.70605 57.0741 7.83551 57.0371 7.97114C57.0125 8.09444 56.9385 8.18691 56.8152 8.24856C56.8029 8.33487 56.8275 8.38418 56.8892 8.39651C56.9508 8.39651 56.9878 8.42734 57.0002 8.48899C57.0125 8.59995 56.994 8.6801 56.9447 8.72942C57.2406 9.21027 57.5057 9.72196 57.7399 10.2645C57.9742 10.7946 58.2393 11.3002 58.5352 11.781ZM56.2234 13.538C56.2727 13.4024 56.3344 13.2914 56.4083 13.2051C56.4946 13.1188 56.544 12.9893 56.5563 12.8167C56.4946 12.7181 56.4577 12.6441 56.4453 12.5948C56.433 12.5331 56.4268 12.4406 56.4268 12.3174C56.1556 11.9351 55.9213 11.5283 55.724 11.0967C55.5268 10.6528 55.3048 10.2398 55.0582 9.85758C55.0336 9.9069 54.9904 9.95622 54.9288 10.0055C54.8671 10.0549 54.7993 10.0425 54.7253 9.96855C54.7007 10.0672 54.6575 10.1412 54.5959 10.1905C54.5342 10.2275 54.4664 10.246 54.3924 10.246C54.3185 10.2336 54.2383 10.2151 54.152 10.1905C54.078 10.1535 54.0102 10.1103 53.9486 10.061C53.591 10.3446 53.2334 10.622 52.8759 10.8933C52.5183 11.1645 52.1977 11.4789 51.9142 11.8365C51.8648 11.8612 51.834 11.8735 51.8217 11.8735C51.8094 11.8612 51.7724 11.8673 51.7107 11.892C51.6121 12.1262 51.4888 12.342 51.3408 12.5393C51.2052 12.7242 51.0696 12.9153 50.934 13.1126C50.7983 13.3099 50.6812 13.5195 50.5826 13.7414C50.4839 13.9634 50.4284 14.2223 50.4161 14.5182C50.6257 14.6908 50.8723 14.7956 51.1559 14.8326C51.4395 14.8696 51.7292 14.8758 52.0251 14.8511C52.3334 14.8264 52.6293 14.7895 52.9129 14.7401C53.2088 14.6785 53.48 14.6477 53.7266 14.6477C54.2445 14.5244 54.6883 14.3641 55.0582 14.1668C55.4281 13.9572 55.8165 13.7476 56.2234 13.538ZM52.6355 4.80858C52.6231 4.68528 52.5676 4.56815 52.469 4.45718C52.3704 4.34621 52.2841 4.26607 52.2101 4.21675C52.1484 4.0688 52.0868 3.93317 52.0251 3.80987C51.9635 3.68658 51.9142 3.56944 51.8772 3.45848C51.8402 3.33518 51.8279 3.21805 51.8402 3.10708C51.8525 2.99611 51.8957 2.87282 51.9696 2.73719C52.0683 2.71253 52.2039 2.63239 52.3765 2.49676C52.5615 2.36113 52.7957 2.15769 53.0793 1.88644C53.2149 1.76314 53.3752 1.60902 53.5602 1.42408C53.7451 1.2268 53.9486 1.03569 54.1705 0.850748C54.3924 0.665803 54.6205 0.499352 54.8548 0.351396C55.0891 0.20344 55.3172 0.0986375 55.5391 0.036989C55.6624 0.0123297 55.7487 0 55.798 0C56.0446 0.0863078 56.285 0.20344 56.5193 0.351396C56.7536 0.499352 56.9817 0.665803 57.2036 0.850748C57.4255 1.03569 57.629 1.2268 57.8139 1.42408C57.9989 1.60902 58.1592 1.76314 58.2948 1.88644C58.5784 2.15769 58.8065 2.36113 58.9791 2.49676C59.164 2.63239 59.3058 2.71253 59.4044 2.73719C59.4784 2.87282 59.5216 2.99611 59.5339 3.10708C59.5462 3.21805 59.5339 3.33518 59.4969 3.45848C59.4599 3.56944 59.4106 3.68658 59.349 3.80987C59.2873 3.93317 59.2257 4.0688 59.164 4.21675C59.09 4.26607 59.0037 4.34621 58.9051 4.45718C58.8065 4.56815 58.751 4.68528 58.7386 4.80858C58.6893 4.77159 58.6153 4.78392 58.5167 4.84557C58.4304 4.90721 58.3749 4.96886 58.3503 5.03051C58.2393 4.96886 58.1345 4.88872 58.0359 4.79008C57.9495 4.67911 57.8571 4.57431 57.7584 4.47568C57.6721 4.37704 57.5797 4.29073 57.481 4.21675C57.3947 4.14277 57.3022 4.09345 57.2036 4.0688C56.957 3.78521 56.6981 3.50163 56.4268 3.21805C56.1679 2.92213 55.9213 2.64472 55.687 2.38579C55.4528 2.64472 55.2 2.92213 54.9288 3.21805C54.6698 3.50163 54.4171 3.78521 54.1705 4.0688C54.0719 4.09345 53.9732 4.14277 53.8746 4.21675C53.7883 4.29073 53.6958 4.37704 53.5972 4.47568C53.5109 4.57431 53.4184 4.67911 53.3197 4.79008C53.2334 4.88872 53.1348 4.96886 53.0238 5.03051C52.9992 4.96886 52.9375 4.90721 52.8389 4.84557C52.7526 4.78392 52.6848 4.77159 52.6355 4.80858Z" fill="white"/>
<path d="M40.4844 15.406C40.3488 15.8992 40.2255 16.2752 40.1146 16.5341C40.0159 16.7807 39.8618 17.0397 39.6522 17.3109C39.4919 17.2862 39.3809 17.3047 39.3193 17.3664C39.2576 17.428 39.1898 17.4835 39.1159 17.5328C39.0049 17.5575 38.9247 17.5575 38.8754 17.5328C38.8261 17.5082 38.7829 17.4774 38.746 17.4404C38.709 17.4157 38.6597 17.3849 38.598 17.3479C38.5487 17.3232 38.4685 17.3109 38.3576 17.3109C38.3329 17.2123 38.3021 17.1198 38.2651 17.0335C38.2404 16.9472 38.1603 16.9164 38.0247 16.941C38.0493 16.8424 38.0555 16.7622 38.0432 16.7006C38.0308 16.6266 38.0123 16.565 37.9877 16.5156C37.9754 16.454 37.963 16.3985 37.9507 16.3492C37.9384 16.2875 37.9445 16.2136 37.9692 16.1273C37.9075 16.1273 37.8582 16.0841 37.8212 15.9978C37.7842 15.9115 37.7411 15.8252 37.6918 15.7389C37.7288 15.5169 37.7658 15.3073 37.8027 15.1101C37.8397 14.9128 37.8829 14.7278 37.9322 14.5552C37.9938 14.3826 38.0432 14.21 38.0802 14.0374C38.1171 13.8648 38.0987 13.686 38.0247 13.501C38.074 13.538 38.111 13.5319 38.1356 13.4825C38.1603 13.4209 38.1788 13.3469 38.1911 13.2606C38.2035 13.162 38.2096 13.0695 38.2096 12.9832C38.2096 12.8845 38.2035 12.8044 38.1911 12.7428C38.3144 12.4222 38.4131 12.0954 38.487 11.7625C38.5733 11.4173 38.6473 11.0782 38.709 10.7453C38.7829 10.4124 38.8569 10.0857 38.9309 9.76514C39.0049 9.44457 39.1035 9.14865 39.2268 8.8774C39.3624 8.85274 39.5104 8.87124 39.6707 8.93288C39.8433 8.9822 39.9481 9.05002 39.9851 9.13632C40.3057 8.88973 40.5892 8.59382 40.8358 8.24859C41.0824 7.89103 41.3352 7.54579 41.5941 7.21289C41.853 6.87999 42.1366 6.58408 42.4449 6.32516C42.7654 6.06623 43.1662 5.91211 43.647 5.86279C43.8936 6.04774 44.1649 6.23885 44.4608 6.43612C44.769 6.62107 45.0218 6.86766 45.219 7.1759C45.3177 7.22522 45.3978 7.28071 45.4595 7.34236C45.5335 7.39167 45.6198 7.44716 45.7184 7.50881V7.73074C45.8664 7.86637 45.9835 8.02665 46.0698 8.2116C46.1684 8.38421 46.2547 8.57532 46.3287 8.78493C46.4027 8.9822 46.4767 9.18564 46.5507 9.39525C46.6246 9.59252 46.7109 9.78363 46.8096 9.96858C46.7849 10.0302 46.7726 10.0857 46.7726 10.135C46.7726 10.172 46.7787 10.2152 46.7911 10.2645C46.8157 10.3138 46.8342 10.3631 46.8466 10.4124C46.8589 10.4618 46.8589 10.5296 46.8466 10.6159C46.8096 11.1584 46.6308 11.5961 46.3102 11.929C46.002 12.2619 45.6259 12.5393 45.1821 12.7613C44.7382 12.9709 44.2635 13.1496 43.758 13.2976C43.2525 13.4455 42.7963 13.6058 42.3894 13.7785C42.3894 13.8278 42.4079 13.8524 42.4449 13.8524C42.4942 13.8524 42.5127 13.8833 42.5003 13.9449C42.7963 14.1298 43.0305 14.2778 43.2031 14.3888C43.3758 14.4997 43.536 14.5922 43.684 14.6662C43.8443 14.7402 44.0107 14.808 44.1834 14.8696C44.3683 14.9189 44.6211 14.9806 44.9416 15.0546C45.2622 15.1286 45.5088 15.1902 45.6814 15.2395C45.8664 15.2765 46.0328 15.3135 46.1808 15.3505C46.3287 15.3751 46.4767 15.3998 46.6246 15.4245C46.7849 15.4368 47.0068 15.4553 47.2904 15.4799C47.4014 15.5909 47.4939 15.7265 47.5678 15.8868C47.6542 16.0348 47.7096 16.1889 47.7343 16.3492C47.759 16.4971 47.7651 16.6451 47.7528 16.7931C47.7405 16.9287 47.6973 17.0397 47.6233 17.126C47.6357 17.1629 47.6603 17.1814 47.6973 17.1814C47.7466 17.1691 47.7959 17.1691 47.8453 17.1814C47.7713 17.2308 47.7096 17.2924 47.6603 17.3664C47.611 17.4404 47.5617 17.5143 47.5124 17.5883C47.463 17.6623 47.4076 17.724 47.3459 17.7733C47.2843 17.8349 47.198 17.8719 47.087 17.8842C46.7048 18.0322 46.2239 18.0384 45.6444 17.9027C45.0649 17.7794 44.3313 17.5452 43.4436 17.1999C42.9997 17.0273 42.636 16.8794 42.3524 16.7561C42.0811 16.6204 41.8407 16.491 41.6311 16.3677C41.4338 16.2321 41.2489 16.0903 41.0763 15.9423C40.916 15.7944 40.7187 15.6156 40.4844 15.406ZM43.1292 9.06235C42.9935 9.25962 42.8394 9.4384 42.6668 9.59869C42.5065 9.75897 42.3462 9.92542 42.1859 10.098C42.038 10.2583 41.9024 10.4433 41.7791 10.6529C41.6558 10.8502 41.5695 11.0844 41.5201 11.3557C41.9517 11.3063 42.4017 11.1892 42.8702 11.0043C43.3388 10.807 43.7826 10.6221 44.2018 10.4494C44.1525 10.0672 44.0169 9.75897 43.795 9.52471C43.5854 9.29045 43.3634 9.13632 43.1292 9.06235Z" fill="white"/>
<path d="M38.9495 8.43353C38.6413 8.43353 38.3084 8.45819 37.9508 8.50751C37.5933 8.5445 37.2419 8.58765 36.8966 8.63697C36.65 8.67396 36.4096 8.70478 36.1754 8.72944C35.9534 8.7541 35.75 8.7726 35.565 8.78493C35.4787 9.05618 35.3924 9.29661 35.3061 9.50621C35.2198 9.71582 35.1273 9.91926 35.0287 10.1165C34.9301 10.3261 34.8376 10.5419 34.7513 10.7638C34.6773 10.9734 34.6033 11.2015 34.5293 11.4481C34.406 11.6454 34.3012 11.8304 34.2149 12.003C34.141 12.1633 34.0793 12.3482 34.03 12.5578C33.882 12.7428 33.7711 12.94 33.6971 13.1496C33.6231 13.3469 33.5676 13.5195 33.5306 13.6675L33.4567 13.8894C33.3827 13.9634 33.3395 14.025 33.3272 14.0744C33.3149 14.1114 33.284 14.1483 33.2347 14.1853C33.2224 14.321 33.1792 14.4566 33.1053 14.5922C33.0806 14.6539 33.0621 14.7155 33.0498 14.7772C33.0374 14.8265 33.0313 14.8635 33.0313 14.8881C33.0313 15.0114 33.0005 15.0916 32.9388 15.1285C32.9511 15.1902 32.9511 15.258 32.9388 15.332C32.9265 15.3936 32.9142 15.4553 32.9018 15.5169C32.8648 15.6649 32.8525 15.782 32.8648 15.8683C32.9018 15.9176 32.9326 15.9608 32.9573 15.9978C32.9943 16.0348 33.019 16.0841 33.0313 16.1457C33.1053 16.1951 33.1607 16.2259 33.1977 16.2382C33.2471 16.2752 33.321 16.3184 33.4197 16.3677L33.5861 16.5526C33.6478 16.9102 33.5923 17.1938 33.4197 17.4034C33.2347 17.6376 32.9203 17.7548 32.4764 17.7548H32.2545C32.1929 17.6931 32.1559 17.6438 32.1435 17.6068C32.0449 17.5698 31.9648 17.539 31.9031 17.5143C31.8415 17.4897 31.786 17.4404 31.7367 17.3664C31.5764 17.2924 31.4469 17.2308 31.3483 17.1814L31.1818 17.089C31.1818 16.9533 31.1818 16.8794 31.1818 16.867C31.0955 16.7561 31.0277 16.6328 30.9784 16.4971C30.9414 16.3615 30.9106 16.2259 30.8859 16.0903C30.8613 15.9793 30.8304 15.8745 30.7934 15.7759C30.7688 15.6772 30.7318 15.5909 30.6825 15.5169C30.6578 14.8018 30.7256 14.1977 30.8859 13.7045C31.0462 13.2113 31.2127 12.7366 31.3853 12.2804C31.4839 12.0338 31.5825 11.7872 31.6812 11.5406C31.7798 11.2817 31.8661 11.0166 31.9401 10.7453L32.1066 10.5604C32.1929 10.3631 32.2607 10.2028 32.31 10.0795C32.3716 9.94392 32.4333 9.80829 32.4949 9.67266C32.5319 9.58636 32.5628 9.50621 32.5874 9.43224C32.6244 9.34593 32.6552 9.27195 32.6799 9.2103C32.6059 9.2103 32.5381 9.21647 32.4764 9.2288C32.4148 9.2288 32.3532 9.23496 32.2915 9.24729C32.2175 9.25962 32.1497 9.27195 32.0881 9.28428C32.0264 9.28428 31.9648 9.28428 31.9031 9.28428C31.8168 9.28428 31.7552 9.27811 31.7182 9.26578C31.5825 9.32743 31.4346 9.35826 31.2743 9.35826H31.0894C31.0524 9.35826 31.0154 9.35826 30.9784 9.35826C30.9537 9.34593 30.9291 9.33976 30.9044 9.33976C30.7811 9.33976 30.6825 9.35826 30.6085 9.39525C30.4605 9.39525 30.3188 9.39525 30.1831 9.39525H29.9982C29.9735 9.39525 29.9427 9.40141 29.9057 9.41374C29.8687 9.41374 29.8379 9.41374 29.8132 9.41374C29.7269 9.41374 29.6345 9.40758 29.5358 9.39525C29.4372 9.37059 29.3324 9.32743 29.2214 9.26578C29.0735 9.06851 28.9748 8.96371 28.9255 8.95138L28.759 8.72944C28.7467 8.65546 28.7282 8.58765 28.7036 8.526C28.6789 8.45203 28.6542 8.37188 28.6296 8.28557C28.5803 8.16228 28.5309 8.03282 28.4816 7.89719C28.4446 7.74923 28.4261 7.57662 28.4261 7.37934C28.4385 7.2807 28.4631 7.20673 28.5001 7.15741C28.5371 7.10809 28.5679 7.06494 28.5926 7.02795L28.6481 6.75053L28.8885 6.76902H29.4064C29.8009 6.76902 30.2016 6.75669 30.6085 6.73203C31.0154 6.69504 31.4346 6.65806 31.8661 6.62107C32.1127 6.59641 32.3593 6.57175 32.6059 6.54709C32.8648 6.52243 33.1299 6.49777 33.4012 6.47311C33.4505 6.36214 33.4998 6.25734 33.5491 6.1587L33.7341 6.06623C33.956 6.0539 34.1101 6.08473 34.1964 6.1587C34.2951 6.22035 34.3752 6.282 34.4369 6.34365C34.7081 6.31899 34.9794 6.29433 35.2506 6.26967C35.5342 6.23268 35.8178 6.18953 36.1014 6.14021C36.5206 6.07856 36.9398 6.02308 37.359 5.97376C37.7905 5.92444 38.2036 5.89978 38.5981 5.89978C38.7708 5.89978 38.9372 5.90595 39.0975 5.91827C39.2578 5.9306 39.4057 5.9491 39.5414 5.97376L39.7263 6.10322C39.7633 6.1772 39.8126 6.24501 39.8743 6.30666C39.9482 6.36831 40.0222 6.42996 40.0962 6.49161C40.2441 6.62723 40.3921 6.78752 40.5401 6.97246C40.688 7.15741 40.7435 7.42866 40.7065 7.78622C40.6079 7.93418 40.5339 8.02049 40.4846 8.04515L40.3181 8.26708L40.1332 8.24859C40.0592 8.24859 39.9914 8.26092 39.9297 8.28557C39.8681 8.2979 39.8064 8.3164 39.7448 8.34106C39.6955 8.36572 39.6462 8.39038 39.5968 8.41504C39.5475 8.42737 39.492 8.4397 39.4304 8.45203C39.3194 8.45203 39.227 8.45203 39.153 8.45203C39.0913 8.4397 39.0235 8.43353 38.9495 8.43353Z" fill="white"/>
<path d="M19.9371 9.00676C20.0234 8.74784 20.159 8.5259 20.344 8.34096C20.5412 8.15601 20.7508 8.00189 20.9728 7.8786C21.207 7.74297 21.4475 7.632 21.6941 7.54569C21.9407 7.45939 22.1749 7.38541 22.3968 7.32376C22.89 7.11416 23.414 6.91688 23.9689 6.73194C24.5361 6.53466 25.1094 6.36204 25.6889 6.21409C26.2807 6.06613 26.8849 5.97366 27.5013 5.93667C28.1178 5.88735 28.7651 5.96133 29.4433 6.1586C29.4803 6.2819 29.5357 6.39903 29.6097 6.51C29.6837 6.62097 29.7577 6.73194 29.8316 6.8429C29.918 6.95387 29.9919 7.06484 30.0536 7.1758C30.1152 7.27444 30.1522 7.37924 30.1646 7.49021C30.2878 7.60118 30.3865 7.72447 30.4605 7.8601C30.5344 7.9834 30.5468 8.14985 30.4975 8.35945C30.3742 8.45809 30.2509 8.55056 30.1276 8.63687C30.0166 8.71085 29.8933 8.77866 29.7577 8.84031C29.3015 8.72934 28.8391 8.69235 28.3706 8.72934C27.9021 8.76633 27.4828 8.79716 27.113 8.82182C27.002 8.71085 26.8664 8.65537 26.7061 8.65537C26.5581 8.65537 26.3978 8.68003 26.2252 8.72934C26.0649 8.77866 25.8985 8.82798 25.7259 8.8773C25.5656 8.92662 25.4115 8.93895 25.2635 8.91429C25.1402 9.01293 24.9861 9.08074 24.8011 9.11773C24.6285 9.14239 24.4374 9.16705 24.2278 9.19171C24.2155 9.25336 24.2278 9.29651 24.2648 9.32117C24.3018 9.3335 24.308 9.37049 24.2833 9.43214C24.3573 9.51844 24.4497 9.58009 24.5607 9.61708C24.684 9.65407 24.8073 9.69106 24.9306 9.72805C25.0662 9.76504 25.1834 9.81436 25.282 9.876C25.3806 9.92532 25.4484 10.0116 25.4854 10.1349C25.6704 10.1349 25.8307 10.1781 25.9663 10.2644C26.1019 10.3507 26.2129 10.4555 26.2992 10.5788C26.3855 10.7021 26.4472 10.8377 26.4841 10.9857C26.5335 11.1213 26.5581 11.2446 26.5581 11.3556C26.5951 11.4542 26.6383 11.4974 26.6876 11.485C26.7369 11.4727 26.7924 11.4974 26.854 11.559C26.891 11.7193 26.9835 11.8857 27.1314 12.0584C27.2794 12.2186 27.3965 12.3974 27.4828 12.5947C27.5075 12.9029 27.526 13.1804 27.5383 13.427C27.5507 13.6612 27.5075 13.9016 27.4089 14.1482C27.2239 14.6044 26.965 15.0113 26.6321 15.3689C26.3115 15.7264 25.9416 16.047 25.5224 16.3306C25.1155 16.6018 24.6778 16.8361 24.2093 17.0334C23.7408 17.2307 23.2846 17.3971 22.8407 17.5327C22.7914 17.5204 22.7421 17.5204 22.6928 17.5327C22.6434 17.5451 22.6311 17.5142 22.6558 17.4403C22.5571 17.5266 22.4462 17.5821 22.3229 17.6067C22.2119 17.6314 22.0886 17.6375 21.953 17.6252C21.8174 17.6252 21.6756 17.619 21.5276 17.6067C21.392 17.5944 21.2625 17.6006 21.1392 17.6252C21.0529 17.5389 20.9728 17.4526 20.8988 17.3663C20.8371 17.2923 20.7878 17.1937 20.7508 17.0704C20.6892 17.0704 20.6584 17.0396 20.6584 16.9779C20.6707 16.9163 20.6522 16.8854 20.6029 16.8854C20.6769 16.7621 20.7077 16.6943 20.6954 16.682C20.6954 16.6573 20.6769 16.6388 20.6399 16.6265C20.6152 16.6142 20.5906 16.6018 20.5659 16.5895C20.5412 16.5649 20.5351 16.534 20.5474 16.497C20.5967 16.3984 20.6152 16.2874 20.6029 16.1641C20.5906 16.0285 20.5782 15.8929 20.5659 15.7573C20.5536 15.6216 20.5597 15.4922 20.5844 15.3689C20.6214 15.2456 20.7138 15.1469 20.8618 15.073C21.281 15.1223 21.6756 15.11 22.0455 15.036C22.4277 14.9497 22.7852 14.8325 23.1181 14.6846C23.451 14.5366 23.7654 14.3763 24.0614 14.2037C24.3696 14.0311 24.6717 13.877 24.9676 13.7414C25.0046 13.6304 25.0539 13.5379 25.1155 13.4639C25.1895 13.39 25.2635 13.3222 25.3375 13.2605C25.4115 13.1989 25.4793 13.131 25.5409 13.0571C25.6026 12.9831 25.6457 12.8906 25.6704 12.7796C25.6827 12.6933 25.6581 12.644 25.5964 12.6317C25.5471 12.607 25.5224 12.5577 25.5224 12.4837L25.319 12.4282C25.0847 12.2926 24.8196 12.1817 24.5237 12.0953C24.2278 11.9967 23.975 11.8919 23.7654 11.7809C23.6298 11.8549 23.5004 11.8734 23.3771 11.8364C23.2661 11.7994 23.1181 11.7624 22.9332 11.7255C22.514 11.7008 22.1071 11.6576 21.7126 11.596C21.3303 11.5343 20.9604 11.4234 20.6029 11.2631C20.5782 11.2014 20.5474 11.146 20.5104 11.0966C20.4734 11.0473 20.4056 11.035 20.307 11.0597C20.233 10.961 20.159 10.8685 20.085 10.7822C20.0111 10.6836 19.9432 10.5788 19.8816 10.4678C19.9063 10.3199 19.9247 10.1966 19.9371 10.0979C19.9494 9.98697 19.9124 9.88217 19.8261 9.78353C19.8754 9.62325 19.9124 9.49378 19.9371 9.39515C19.9617 9.29651 19.9617 9.16705 19.9371 9.00676Z" fill="white"/>
<path d="M17.4959 16.0348C17.5575 16.4047 17.5329 16.6944 17.4219 16.904C17.3232 17.1136 17.1753 17.2677 16.978 17.3664C16.7931 17.4774 16.5773 17.539 16.3307 17.5513C16.0841 17.5637 15.8499 17.5513 15.6279 17.5143C15.5046 17.3417 15.3937 17.126 15.295 16.867C15.1964 16.6081 15.1039 16.343 15.0176 16.0718C14.9313 15.7882 14.8511 15.5108 14.7772 15.2395C14.7155 14.9683 14.66 14.7278 14.6107 14.5182C14.6724 14.3703 14.7094 14.2038 14.7217 14.0189C14.7463 13.8216 14.7587 13.6243 14.7587 13.427C14.771 13.2298 14.7772 13.0325 14.7772 12.8352C14.7895 12.6256 14.808 12.4283 14.8327 12.2434C14.919 11.7256 15.0423 11.2324 15.2025 10.7638C15.3752 10.2953 15.5108 9.80829 15.6094 9.30277C15.6341 9.1918 15.6218 9.087 15.5724 8.98836C15.5354 8.88973 15.5293 8.79725 15.5539 8.71094C15.5663 8.66163 15.6033 8.6308 15.6649 8.61847C15.7266 8.59381 15.7635 8.55066 15.7759 8.48901C15.8129 8.35338 15.819 8.24242 15.7944 8.15611C15.782 8.0698 15.8067 7.965 15.8683 7.8417C15.93 7.74306 16.004 7.60127 16.0903 7.41633C16.1889 7.21905 16.2259 7.01561 16.2012 6.80601C16.3122 6.73203 16.417 6.64572 16.5157 6.54709C16.6143 6.44845 16.7129 6.36214 16.8116 6.28816C16.9225 6.20185 17.0397 6.12788 17.163 6.06623C17.2986 6.00458 17.4589 5.97375 17.6438 5.97375C17.7425 6.09705 17.8041 6.23268 17.8288 6.38063C17.8658 6.52859 17.8966 6.67655 17.9212 6.8245C17.9582 6.97246 18.0075 7.11425 18.0692 7.24988C18.1308 7.37317 18.2356 7.47181 18.3836 7.54579C18.3836 7.64443 18.3836 7.76772 18.3836 7.91568C18.3836 8.06364 18.3898 8.21159 18.4021 8.35955C18.4144 8.49518 18.4391 8.62464 18.4761 8.74793C18.5254 8.8589 18.5994 8.93288 18.698 8.96987C18.4761 9.56169 18.2665 10.1474 18.0692 10.7268C17.8842 11.3063 17.7301 11.892 17.6068 12.4838C17.4835 13.0633 17.4034 13.649 17.3664 14.2408C17.3417 14.8326 17.3849 15.4306 17.4959 16.0348Z" fill="white"/>
<path d="M2.10838 8.39654C1.59053 8.18693 1.15899 7.89102 0.813759 7.5088C0.480858 7.12658 0.209605 6.67655 0 6.1587C0.123297 5.8258 0.320572 5.54838 0.591825 5.32645C0.863078 5.09218 1.16516 4.89491 1.49806 4.73462C1.84329 4.57433 2.20701 4.44487 2.58923 4.34624C2.97145 4.2476 3.34134 4.16129 3.69891 4.08731C3.77288 4.11197 3.80987 4.11197 3.80987 4.08731C3.80987 4.06265 3.8407 4.07498 3.90234 4.1243C4.34621 3.98867 4.8579 3.85921 5.43739 3.73592C6.01689 3.60029 6.63337 3.55097 7.28684 3.58796C7.37315 3.53864 7.47795 3.51398 7.60125 3.51398C7.72455 3.50165 7.85401 3.49549 7.98964 3.49549C8.12526 3.49549 8.25472 3.49549 8.37802 3.49549C8.50132 3.48316 8.60612 3.4585 8.69243 3.42151C8.76641 3.50782 8.87737 3.5633 9.02533 3.58796C9.17328 3.60029 9.32741 3.66194 9.48769 3.7729C9.53701 3.78523 9.53701 3.76674 9.48769 3.71742C9.43837 3.65577 9.44454 3.61262 9.50619 3.58796C9.66647 3.58796 9.80826 3.62495 9.93156 3.69893C10.0549 3.7729 10.1658 3.85921 10.2645 3.95785C10.3754 4.04416 10.4741 4.1243 10.5604 4.19828C10.659 4.27226 10.7638 4.30925 10.8748 4.30925C10.9857 4.44487 11.1152 4.57433 11.2632 4.69763C11.4235 4.8086 11.5714 4.92573 11.707 5.04903C11.855 5.17232 11.9721 5.30795 12.0584 5.45591C12.1571 5.60386 12.2064 5.77031 12.2064 5.95526C12.1941 6.02924 12.2187 6.07239 12.2804 6.08472C12.342 6.09705 12.3852 6.13404 12.4098 6.19569C12.4222 6.65189 12.3482 7.04644 12.1879 7.37934C12.0399 7.71224 11.8488 8.02048 11.6146 8.30406C11.3803 8.57532 11.1275 8.83424 10.8563 9.08083C10.5974 9.32743 10.3569 9.59252 10.135 9.8761C10.283 10.061 10.4494 10.2337 10.6344 10.3939C10.8316 10.5419 11.0289 10.6899 11.2262 10.8378C11.4235 10.9858 11.6084 11.1461 11.781 11.3187C11.966 11.479 12.1201 11.6639 12.2434 11.8735C12.2804 11.9475 12.3605 11.9968 12.4838 12.0215C12.5208 12.1694 12.5701 12.3235 12.6318 12.4838C12.7057 12.6318 12.7736 12.7797 12.8352 12.9277C12.8968 13.0633 12.9338 13.1866 12.9462 13.2976C12.9585 13.4086 12.9277 13.501 12.8537 13.575C12.94 13.6243 12.9893 13.7045 13.0017 13.8154C13.014 13.9141 13.014 13.9942 13.0017 14.0559C12.7304 14.3888 12.5455 14.623 12.4468 14.7587C12.3482 14.8943 12.2742 14.9929 12.2249 15.0546C12.1756 15.1162 12.1262 15.1717 12.0769 15.221C12.0276 15.2703 11.9166 15.369 11.744 15.5169C11.0906 15.9115 10.4063 16.269 9.69113 16.5896C8.98834 16.8979 8.25472 17.1075 7.49028 17.2184C7.42863 17.3047 7.33616 17.3725 7.21287 17.4219C7.1019 17.4835 6.97244 17.5328 6.82448 17.5698C6.67652 17.6068 6.51624 17.6376 6.34362 17.6623C6.18334 17.687 6.03538 17.7116 5.89975 17.7363C5.83811 17.7116 5.80112 17.6685 5.78879 17.6068C5.78879 17.5575 5.75796 17.5205 5.69631 17.4958C5.68398 17.6438 5.61617 17.7178 5.49287 17.7178C5.38191 17.7301 5.24012 17.7054 5.0675 17.6438C4.89488 17.5822 4.7161 17.4958 4.53116 17.3849C4.34621 17.2739 4.18593 17.1691 4.0503 17.0705C3.98865 17.1814 3.90851 17.2986 3.80987 17.4219C3.72356 17.5452 3.63109 17.6315 3.53245 17.6808C3.35984 17.6561 3.23038 17.6376 3.14407 17.6253C3.07009 17.613 2.99611 17.6438 2.92214 17.7178C2.8235 17.6685 2.74952 17.613 2.7002 17.5513C2.65088 17.502 2.60156 17.4465 2.55224 17.3849C2.50293 17.3356 2.44744 17.2924 2.38579 17.2554C2.32415 17.2061 2.23167 17.1629 2.10838 17.126C2.13304 17.0643 2.11454 16.9718 2.05289 16.8485C1.99124 16.7129 1.90494 16.6328 1.79397 16.6081C1.85562 16.5095 1.83096 16.3862 1.71999 16.2382C1.60902 16.0779 1.52272 15.8991 1.46107 15.7019C1.4734 15.6156 1.47956 15.5293 1.47956 15.443C1.49189 15.3443 1.50422 15.258 1.51655 15.184C1.54121 15.0977 1.57203 15.0237 1.60902 14.9621C1.64601 14.9004 1.70766 14.8573 1.79397 14.8326C1.78164 14.6723 1.73232 14.5182 1.64601 14.3703C1.75698 14.284 1.83096 14.1792 1.86795 14.0559C1.90494 13.9202 1.93576 13.7846 1.96042 13.649C1.99741 13.5134 2.04056 13.3839 2.08988 13.2606C2.1392 13.125 2.21934 13.014 2.33031 12.9277C2.30565 12.8907 2.28099 12.8599 2.25633 12.8352C2.23167 12.8106 2.21934 12.7674 2.21934 12.7058C2.40429 12.3975 2.53375 12.1386 2.60773 11.929C2.68171 11.7071 2.73719 11.4975 2.77418 11.3002C2.8235 11.0906 2.87282 10.8686 2.92214 10.6344C2.97145 10.4001 3.07009 10.1042 3.21805 9.74664C3.20572 9.5247 3.23038 9.32743 3.29203 9.15481C3.35367 8.9822 3.41532 8.81575 3.47697 8.65546C3.55095 8.48284 3.60643 8.30406 3.64342 8.11912C3.68041 7.93417 3.67425 7.7184 3.62493 7.47181C3.41532 7.49647 3.2612 7.57045 3.16256 7.69374C3.07626 7.81704 3.02077 7.98349 2.99611 8.1931C2.88515 8.29173 2.74335 8.34105 2.57074 8.34105C2.39812 8.32872 2.244 8.34722 2.10838 8.39654ZM10.246 11.966C9.77744 11.7071 9.3459 11.5529 8.95135 11.5036C8.56913 11.4543 8.19924 11.4605 7.84168 11.5221C7.49645 11.5714 7.16355 11.6454 6.84297 11.744C6.5224 11.8427 6.20183 11.9167 5.88126 11.966C5.72097 12.3852 5.55452 12.8476 5.38191 13.3531C5.20929 13.8586 5.04284 14.3518 4.88256 14.8326C5.32642 14.771 5.7333 14.6785 6.10319 14.5552C6.47308 14.4319 6.83065 14.2963 7.17588 14.1483C7.52111 13.988 7.86017 13.8339 8.19308 13.686C8.52598 13.5257 8.87121 13.3777 9.22877 13.2421C9.26576 13.0941 9.3459 12.977 9.4692 12.8907C9.59249 12.8044 9.71579 12.7243 9.83909 12.6503C9.96239 12.564 10.0672 12.4715 10.1535 12.3729C10.2398 12.2742 10.2706 12.1386 10.246 11.966ZM8.95135 6.17719C8.18691 6.15253 7.4348 6.22035 6.69502 6.38063C5.95524 6.54092 5.33259 6.77518 4.82707 7.08343C5.07367 7.29303 5.32642 7.47798 5.58535 7.63826C5.8566 7.79855 6.06004 8.01432 6.19567 8.28557C6.78749 8.05131 7.30534 7.75539 7.74921 7.39783C8.19308 7.02794 8.59379 6.62106 8.95135 6.17719Z" fill="white"/>
</svg>
